                         WARNING!!!! Russian audio ONLY!!!!!


Directors: Aleksandr Baranov, Dmitriy Kiselev 
Writers: Vladimir Nagorny, Slava Se 
Stars: Dato Bakhtadze, Sergey Bezrukov, Dima Bilan 

MediaInfo 0.7.61:
General
Complete name                            : D:111111Djentelmeny.udachi.2012.O.WEBRip.700MB.avi
Format                                   : AVI
Format/Info                              : Audio Video Interleave
File size                                : 706 MiB
Duration                                 : 1h 39mn
Overall bit rate                         : 990 Kbps
Writing library                          : VirtualDub build 29808/release

Video
ID                                       : 0
Format                                   : MPEG-4 Visual
Format profile                           : Advanced Simple@L5
Format settings, BVOP                    : 2
Format settings, QPel                    : No
Format settings, GMC                     : No warppoints
Format settings, Matrix                  : Default (MPEG)
Muxing mode                              : Packed bitstream
Codec ID                                 : XVID
Codec ID/Hint                            : XviD
Duration                                 : 1h 39mn
Bit rate                                 : 852 Kbps
Width                                    : 640 pixels
Height                                   : 272 pixels
Display aspect ratio                     : 2.35:1
Frame rate                               : 25.000 fps
Color space                              : YUV
Chroma subsampling                       : 4:2:0
Bit depth                                : 8 bits
Scan type                                : Progressive
Compression mode                         : Lossy
Bits/(Pixel*Frame)                       : 0.196
Stream size                              : 608 MiB (86%)
Writing library                          : XviD 64

Audio
ID                                       : 1
Format                                   : MPEG Audio
Format version                           : Version 1
Format profile                           : Layer 3
Mode                                     : Joint stereo
Codec ID                                 : 55
Codec ID/Hint                            : MP3
Duration                                 : 1h 39mn
Bit rate mode                            : Constant
Bit rate                                 : 128 Kbps
Channel(s)                               : 2 channels
Sampling rate                            : 48.0 KHz
Compression mode                         : Lossy
Stream size                              : 91.3 MiB (13%)
Alignment                                : Split accross interleaves
Interleave, duration                     : 40 ms (1.00 video frame)
Interleave, preload duration             : 500 ms
Writing library                          : LAME3.98.2

